<?xml version="1.0" standalone="no"?>
<!DOCTYPE svg PUBLIC "-//W3C//DTD SVG 20010904//EN"
 "http://www.w3.org/TR/2001/REC-SVG-20010904/DTD/svg10.dtd">
<svg version="1.0" xmlns="http://www.w3.org/2000/svg"
 width="600.000000pt" height="600.000000pt" viewBox="0 0 600.000000 600.000000"
 preserveAspectRatio="xMidYMid meet">

<g transform="translate(0.000000,600.000000) scale(0.100000,-0.100000)"
fill="#002c63" stroke="none">
<path d="M0 3000 l0 -3000 3000 0 3000 0 0 3000 0 3000 -3000 0 -3000 0 0
-3000z m4801 1485 c138 -49 171 -202 62 -288 l-24 -19 34 -24 c88 -59 89 -189
3 -261 -48 -39 -96 -53 -183 -53 -120 0 -204 59 -220 155 l-6 35 76 0 c71 0
75 -1 81 -25 6 -24 51 -55 80 -55 53 0 93 54 81 110 -9 39 -48 60 -115 60
l-50 0 0 54 0 54 60 4 c74 5 95 22 95 79 0 48 -22 69 -70 69 -35 0 -75 -24
-75 -46 0 -11 -16 -14 -75 -14 -70 0 -75 2 -75 21 0 34 30 88 63 111 68 48
175 62 258 33z m-2661 -305 l0 -110 -210 0 -210 0 0 -1175 0 -1175 210 0 210
0 0 -110 0 -110 -320 0 -320 0 0 1395 0 1395 320 0 320 0 0 -110z m2148 -1287
l2 -1393 -325 0 -326 0 3 108 3 107 213 3 212 2 0 1175 0 1175 -215 0 -215 0
0 110 0 110 323 -2 322 -3 3 -1392z m-975 842 c177 -46 298 -177 329 -354 22
-127 -20 -277 -105 -379 l-36 -43 62 -62 c100 -102 147 -218 147 -363 0 -136
-51 -262 -144 -355 -58 -59 -108 -90 -192 -121 -58 -21 -72 -22 -591 -26
l-533 -3 0 860 0 861 503 0 c413 0 513 -3 560 -15z"/>
<path d="M2680 3246 l0 -176 214 0 c128 0 226 4 243 11 61 23 113 100 113 169
0 50 -32 113 -71 141 -33 23 -39 24 -266 27 l-233 3 0 -175z"/>
<path d="M2680 2550 l0 -190 213 0 c237 0 268 7 320 69 25 30 47 87 47 121 0
34 -22 91 -47 121 -52 62 -83 69 -320 69 l-213 0 0 -190z"/>
</g>
</svg>
